# xmcd
#
# Track frame offsets:
#	150
#	13482
#	26147
#	34337
#	44772
#	59915
#	72827
#	86165
#	97510
#	109150
#	119805
#	135457
#	149900
#	161625
#	176362
#	187562
#	201025
#	219332
#	237200
#	250460
#
# Disc length: 3510
#
# Revision: 1
# Processed by: cddbd v1.5.1PL0 Copyright (c) Steve Scherf et al.
# Submitted via: ExactAudioCopy v0.90b4
# Normalized: r0:DSETVAR1
#
DISCID=2f0db414
DTITLE=Various Artist - The Best Of Julie London and Vikki Carr
DYEAR=1993
DGENRE=Oldies
TTITLE0=Julie London - Cry Me A River
TTITLE1=Julie London - In The Wee Small Hours
TTITLE2=Julie London - Hot Toddy
TTITLE3=Julie London - Our Day Will Come
TTITLE4=Julie London - A Taste Of Honey
TTITLE5=Julie London - Love Letters
TTITLE6=Julie London - Black Coffee
TTITLE7=Julie London - Blue Moon
TTITLE8=Julie London - Sway
TTITLE9=Julie London - I'm Coming Back To You
TTITLE10=Vikki Carr - The First Time Ever I Saw Your Face
TTITLE11=Vikki Carr - (Last Night) I Didn't Get To Sleep At All
TTITLE12=Vikki Carr - Gypsies, Tramps And Thieves
TTITLE13=Vikki Carr - Without You
TTITLE14=Vikki Carr - The Way Of Love
TTITLE15=Vikki Carr - How Can You Mend A Broken Heart
TTITLE16=Vikki Carr - Spanish Harlem
TTITLE17=Vikki Carr - Loving Him Was Easier (Than Anything I'll Ever Do Again
TTITLE18=Vikki Carr - I'd Do It All Again
TTITLE19=Vikki Carr - Crazy Love
EXTD=Columbia 474548 2
EXTT0=
EXTT1=
EXTT2=
EXTT3=
EXTT4=
EXTT5=
EXTT6=
EXTT7=
EXTT8=
EXTT9=
EXTT10=
EXTT11=
EXTT12=
EXTT13=
EXTT14=
EXTT15=
EXTT16=
EXTT17=
EXTT18=
EXTT19=
PLAYORDER=
